<svg xmlns="http://www.w3.org/2000/svg" xmlns:xlink="http://www.w3.org/1999/xlink" width="500" zoomAndPan="magnify" viewBox="0 0 375 374.999991" height="500" preserveAspectRatio="xMidYMid meet" version="1.0"><rect x="-37.5" width="450" fill="#ffffff" y="-37.499999" height="449.999989" fill-opacity="1"/><rect x="-37.5" width="450" fill="#4839f4" y="-37.499999" height="449.999989" fill-opacity="1"/><rect x="-37.5" width="450" fill="#ffffff" y="-37.499999" height="449.999989" fill-opacity="1"/><rect x="-37.5" width="450" fill="#4839f4" y="-37.499999" height="449.999989" fill-opacity="1"/><path fill="#ffffff" d="M 254.894531 237.378906 C 258.148438 237.378906 260.78125 240.015625 260.78125 243.269531 L 260.78125 255.050781 C 260.78125 258.304688 258.144531 260.941406 254.894531 260.941406 L 243.113281 260.941406 C 239.859375 260.941406 237.222656 258.300781 237.222656 255.050781 L 237.222656 242.097656 L 201.875 242.097656 L 201.875 263.886719 C 201.875 281.753906 216.410156 296.289062 234.273438 296.289062 L 263.730469 296.289062 C 281.597656 296.289062 296.132812 281.753906 296.132812 263.886719 L 296.132812 234.433594 C 296.132812 216.566406 281.597656 202.03125 263.730469 202.03125 L 177.722656 202.03125 L 177.722656 237.378906 Z M 254.894531 237.378906 " fill-opacity="1" fill-rule="nonzero"/><path fill="#ffffff" d="M 137.578125 255.179688 C 137.578125 258.433594 134.941406 261.070312 131.6875 261.070312 L 119.90625 261.070312 C 116.652344 261.070312 114.015625 258.429688 114.015625 255.179688 L 114.015625 243.398438 C 114.015625 240.144531 116.65625 237.507812 119.90625 237.507812 L 132.859375 237.507812 L 132.859375 202.160156 L 111.070312 202.160156 C 93.203125 202.160156 78.667969 216.695312 78.667969 234.5625 L 78.667969 264.015625 C 78.667969 281.882812 93.203125 296.417969 111.070312 296.417969 L 140.523438 296.417969 C 158.390625 296.417969 172.925781 281.882812 172.925781 264.015625 L 172.925781 177.242188 L 137.578125 177.242188 Z M 137.578125 255.179688 " fill-opacity="1" fill-rule="nonzero"/><path fill="#ffffff" d="M 119.78125 137.167969 C 116.523438 137.167969 113.890625 134.53125 113.890625 131.277344 L 113.890625 119.496094 C 113.890625 116.242188 116.527344 113.605469 119.78125 113.605469 L 131.558594 113.605469 C 134.816406 113.605469 137.449219 116.246094 137.449219 119.496094 L 137.449219 132.449219 L 172.796875 132.449219 L 172.796875 110.660156 C 172.796875 92.792969 158.261719 78.257812 140.394531 78.257812 L 110.941406 78.257812 C 93.078125 78.257812 78.542969 92.792969 78.542969 110.65625 L 78.542969 140.113281 C 78.542969 157.976562 93.078125 172.511719 110.945312 172.511719 L 197.109375 172.511719 L 197.109375 137.167969 Z M 119.78125 137.167969 " fill-opacity="1" fill-rule="nonzero"/><path fill="#ffffff" d="M 296.128906 110.65625 C 296.128906 92.789062 281.59375 78.253906 263.726562 78.253906 L 234.273438 78.253906 C 216.40625 78.253906 201.871094 92.789062 201.871094 110.65625 L 201.871094 197.285156 L 237.214844 197.285156 L 237.214844 119.492188 C 237.214844 116.238281 239.851562 113.605469 243.105469 113.605469 L 295.996094 113.605469 C 295.996094 113.605469 296.128906 110.328125 296.128906 110.65625 Z M 296.128906 110.65625 " fill-opacity="1" fill-rule="nonzero"/><path fill="#ffffff" d="M 241.941406 172.511719 L 241.941406 137.167969 L 263.730469 137.167969 C 281.597656 137.167969 296.132812 154.097656 296.132812 171.960938 Z M 241.941406 172.511719 " fill-opacity="1" fill-rule="nonzero"/><path fill="#4839f4" d="M 272.753906 89.082031 C 272.753906 89.515625 272.671875 89.9375 272.503906 90.339844 C 272.335938 90.738281 272.101562 91.09375 271.792969 91.402344 C 271.484375 91.710938 271.128906 91.949219 270.726562 92.113281 C 270.324219 92.28125 269.90625 92.363281 269.472656 92.363281 C 269.035156 92.363281 268.617188 92.28125 268.214844 92.113281 C 267.8125 91.949219 267.457031 91.710938 267.148438 91.402344 C 266.84375 91.09375 266.605469 90.738281 266.4375 90.339844 C 266.273438 89.9375 266.1875 89.515625 266.1875 89.082031 C 266.1875 88.648438 266.273438 88.226562 266.4375 87.824219 C 266.605469 87.421875 266.84375 87.070312 267.148438 86.761719 C 267.457031 86.453125 267.8125 86.214844 268.214844 86.050781 C 268.617188 85.882812 269.035156 85.800781 269.472656 85.800781 C 269.90625 85.800781 270.324219 85.882812 270.726562 86.050781 C 271.128906 86.214844 271.484375 86.453125 271.792969 86.761719 C 272.101562 87.070312 272.335938 87.421875 272.503906 87.824219 C 272.671875 88.226562 272.753906 88.648438 272.753906 89.082031 Z M 272.753906 89.082031 " fill-opacity="1" fill-rule="nonzero"/></svg>